<?xml version="1.0" standalone="no"?>
<!DOCTYPE svg PUBLIC "-//W3C//DTD SVG 20010904//EN"
 "http://www.w3.org/TR/2001/REC-SVG-20010904/DTD/svg10.dtd">
<svg version="1.0" xmlns="http://www.w3.org/2000/svg"
 width="2080.000000pt" height="624.000000pt" viewBox="0 0 2080.000000 624.000000"
 preserveAspectRatio="xMidYMid meet">

<g transform="translate(0.000000,624.000000) scale(0.100000,-0.100000)"
fill="#000000" stroke="none">
<path d="M4000 5449 c-30 -16 -76 -50 -101 -75 -45 -45 -46 -45 -90 -35 -69
16 -133 13 -160 -7 -13 -10 -49 -33 -79 -51 -30 -19 -76 -53 -103 -78 -26 -24
-60 -49 -76 -54 -26 -9 -30 -17 -41 -77 -7 -37 -16 -132 -20 -212 -8 -141 -29
-238 -61 -276 -16 -20 -60 -17 -121 6 -59 22 -70 18 -90 -36 -13 -37 -28 -45
-28 -16 0 11 -9 27 -20 37 -19 17 -21 17 -65 -24 -26 -24 -61 -49 -79 -56 -34
-14 -86 -67 -87 -88 0 -7 -4 -102 -9 -212 -7 -179 -12 -215 -43 -340 -33 -131
-67 -322 -67 -377 0 -90 -67 -194 -145 -224 -42 -15 -45 -19 -54 -68 -6 -28
-15 -89 -21 -136 -17 -127 -28 -154 -86 -214 -30 -31 -55 -68 -59 -86 l-7 -31
-22 24 c-17 19 -36 25 -91 30 -64 6 -71 5 -95 -18 -18 -17 -29 -22 -40 -15
-28 18 -50 10 -87 -31 -21 -23 -57 -51 -82 -63 -73 -35 -86 -62 -83 -164 4
-129 -35 -442 -85 -677 -12 -60 -16 -128 -15 -270 0 -182 2 -193 26 -248 14
-31 42 -112 62 -180 40 -138 61 -170 143 -226 32 -22 82 -61 112 -88 97 -87
139 -102 174 -63 23 25 45 25 87 1 18 -11 53 -22 77 -26 24 -4 59 -14 77 -21
49 -21 82 -17 108 11 30 32 85 55 132 55 50 0 137 23 279 75 66 24 134 46 151
50 32 6 63 33 83 72 19 38 87 66 171 70 104 6 119 10 132 38 20 44 55 47 483
43 393 -3 401 -3 443 -26 40 -20 45 -21 72 -7 37 19 62 19 125 -1 43 -14 160
-16 883 -19 594 -3 843 -7 868 -15 20 -7 51 -9 72 -5 55 10 130 13 422 18 212
4 278 1 329 -10 46 -11 86 -13 145 -8 75 7 150 9 236 6 19 -1 112 2 207 5
l171 6 4 -24 c4 -28 42 -37 66 -15 13 12 49 16 152 18 213 3 230 2 230 -19 0
-20 25 -46 49 -54 9 -2 1 -10 -20 -20 -34 -17 -203 -37 -479 -57 -187 -15
-352 -31 -369 -37 -10 -3 -11 -8 -4 -15 13 -13 377 -12 518 1 304 29 499 56
651 89 94 20 164 45 164 57 0 4 -61 4 -136 1 -115 -6 -135 -5 -125 7 9 11 5
15 -24 20 -47 9 -44 21 12 40 60 21 103 20 148 -1 32 -15 49 -16 183 -5 81 7
168 12 193 12 80 0 110 10 107 34 -3 24 -44 33 -168 37 -71 1 -73 2 -30 10 25
4 66 8 92 8 26 1 71 6 100 13 l53 12 -68 6 c-79 8 -105 24 -63 40 20 7 44 7
85 -1 51 -11 65 -9 166 19 61 16 142 35 180 42 39 6 99 16 135 21 36 6 148 11
250 11 195 -1 203 1 290 54 19 11 40 13 90 8 103 -11 406 -4 510 11 52 8 183
19 290 25 156 10 202 16 230 31 69 37 220 71 337 77 99 4 369 -11 414 -24 19
-5 54 25 42 36 -4 5 -17 10 -28 13 -12 3 -5 5 16 6 146 5 461 23 539 32 111
12 489 29 705 33 89 1 168 7 195 15 31 9 73 11 135 7 50 -3 131 -1 180 4 50 6
207 13 350 16 143 2 279 9 301 15 30 8 47 8 62 0 29 -16 118 -13 176 4 28 9
88 15 140 15 50 0 168 10 261 22 171 21 436 30 452 15 4 -5 0 -14 -10 -21 -9
-7 -17 -18 -17 -24 0 -24 42 -22 102 4 63 26 146 42 358 68 174 22 265 46 244
66 -19 16 -82 32 -156 40 -61 5 -84 12 -113 34 l-35 27 0 -29 c0 -16 -8 -36
-18 -45 -46 -42 -305 -68 -362 -37 -14 8 -56 17 -95 20 -79 7 -72 14 30 30
103 16 132 42 48 42 -106 1 -614 -21 -623 -27 -6 -4 -65 -1 -131 6 -95 10
-129 10 -162 1 -131 -38 -504 -56 -1267 -59 -797 -4 -906 -6 -916 -16 -5 -5 2
-17 16 -27 23 -18 44 -20 225 -20 110 0 216 4 235 9 53 14 173 18 177 5 2 -6
-51 -14 -149 -22 -179 -14 -318 -26 -554 -48 -94 -9 -182 -14 -195 -12 l-24 4
28 12 c63 27 22 42 -115 42 -89 0 -122 9 -103 28 4 4 82 9 173 12 140 4 167 7
167 20 0 10 12 16 35 17 93 7 416 35 502 44 54 5 166 16 250 24 84 8 187 19
228 25 41 6 161 15 265 20 105 5 262 14 350 20 160 10 327 20 695 41 144 8
212 16 259 31 60 19 66 20 98 4 48 -23 74 -20 99 12 l22 27 50 -17 c68 -24
153 -23 202 2 46 24 78 25 104 5 22 -16 128 -20 249 -8 60 5 68 8 64 25 -5 16
1 18 44 18 29 0 64 -8 87 -20 45 -23 65 -19 80 16 9 18 19 24 44 24 70 -1 113
-16 150 -53 40 -41 57 -44 120 -23 24 8 69 19 102 25 65 12 86 24 86 51 0 13
-12 20 -47 26 -25 5 -48 14 -50 21 -8 22 56 46 104 39 23 -3 63 -9 88 -12 65
-9 99 15 90 62 l-6 34 50 0 c62 0 90 -13 116 -53 14 -23 29 -33 51 -35 25 -3
36 5 72 47 23 27 42 52 42 56 0 12 -149 75 -177 75 -18 0 -45 -12 -68 -30 -23
-19 -45 -28 -59 -25 -11 2 -58 7 -102 10 -45 3 -106 13 -135 20 -68 18 -232
18 -279 0 -33 -13 -33 -14 -12 -21 12 -3 22 -10 22 -15 0 -12 -187 -11 -195 1
-4 6 6 10 22 10 15 0 35 5 43 10 11 7 1 15 -45 37 l-60 28 -212 -3 c-206 -3
-213 -3 -230 18 -36 43 -63 50 -159 40 -112 -12 -275 -12 -293 -1 -22 14 11
19 159 20 74 1 182 6 240 12 58 5 184 13 280 18 167 8 178 10 243 41 37 17 67
35 67 40 0 15 -94 90 -113 90 -10 0 -33 -11 -51 -25 -38 -29 -33 -28 -494 -51
-178 -9 -330 -13 -338 -10 -7 3 -14 16 -14 29 0 21 -6 25 -41 30 -56 7 -59 14
-22 47 37 34 59 37 318 45 99 3 272 10 384 15 l204 9 51 -26 c59 -30 155 -37
219 -14 37 13 50 31 22 31 -18 0 -20 16 -2 23 6 2 38 1 71 -4 63 -8 194 2 320
26 43 8 128 15 190 15 123 0 152 9 124 36 -14 15 -35 17 -135 15 -64 -1 -121
-5 -126 -8 -13 -8 -117 7 -117 17 0 23 64 40 172 45 62 3 154 7 203 9 98 5
170 -10 170 -34 0 -11 -16 -17 -57 -21 -55 -6 -88 -21 -88 -40 0 -5 9 -9 20
-9 11 0 29 -9 40 -20 l21 -21 -22 -39 c-12 -21 -46 -66 -75 -99 -44 -51 -52
-65 -45 -84 10 -27 53 -34 84 -14 12 8 54 20 92 26 39 7 80 19 93 27 21 14 22
16 6 45 -12 23 -13 42 -7 81 7 46 11 51 43 62 30 9 36 17 46 55 8 35 16 46 45
58 40 17 79 13 174 -17 108 -34 133 -36 158 -12 12 11 29 21 37 23 22 4 508
-11 558 -17 27 -3 42 -10 42 -20 0 -8 5 -14 10 -14 6 0 10 5 10 10 0 6 68 10
183 10 196 0 228 7 190 39 -13 11 -23 23 -23 27 0 8 605 -2 680 -12 l45 -5
-29 17 c-41 23 -158 41 -327 49 -80 4 -151 10 -156 13 -6 4 -13 18 -14 32 -4
22 -9 25 -49 25 -39 0 -45 -3 -50 -25 -5 -22 -12 -25 -58 -28 -29 -2 -148 6
-265 18 -153 15 -242 19 -322 14 -100 -5 -311 9 -325 23 -3 2 5 13 17 23 29
23 29 46 1 55 -15 5 16 10 88 15 90 5 119 11 148 29 20 13 36 25 36 28 0 3
-13 21 -30 40 -16 18 -30 40 -30 48 0 24 -30 45 -67 45 -27 0 -45 -9 -76 -36
-45 -41 -40 -41 -207 -4 -229 50 -410 69 -410 42 0 -11 55 -29 113 -37 64 -9
60 -25 -5 -18 -38 3 -59 0 -72 -10 -19 -14 -18 -15 15 -22 75 -16 275 -77 284
-87 7 -7 -30 -8 -117 -3 -88 5 -128 4 -128 -4 0 -10 61 -31 93 -31 24 0 97
-38 97 -50 0 -17 -104 -15 -165 4 -30 9 -107 10 -300 6 -240 -6 -271 -5 -400
16 -77 12 -171 25 -210 29 -38 3 -103 11 -142 16 -70 10 -113 6 -113 -10 0 -4
35 -16 78 -26 l77 -20 -70 -6 c-38 -4 -110 -11 -160 -17 -49 -6 -152 -12 -227
-13 -127 -3 -139 -1 -160 18 -13 11 -33 24 -45 28 -13 3 -23 9 -23 13 0 12
113 42 185 48 70 7 100 18 89 35 -3 5 -25 9 -48 9 -47 0 -72 19 -62 46 5 14
16 16 56 11 45 -6 50 -4 50 14 0 11 -11 30 -23 42 -31 29 -47 60 -39 74 11 17
58 33 97 33 19 0 45 4 59 10 22 8 26 16 26 49 0 52 -17 61 -115 61 -80 0 -115
12 -169 57 -19 16 -40 24 -60 23 -17 -1 -36 -2 -42 -1 -18 2 -26 32 -13 47 15
18 2 39 -16 24 -10 -9 -15 -4 -20 18 -3 17 -15 38 -26 48 -16 14 -23 15 -45 6
-36 -17 -82 -15 -136 6 -65 25 -67 29 -11 38 72 12 111 10 303 -9 245 -24 427
-38 625 -47 106 -5 185 -13 210 -22 37 -14 42 -13 65 3 23 17 31 18 112 4 64
-10 97 -11 125 -3 47 12 105 47 98 58 -12 19 -151 50 -291 64 -83 9 -158 16
-168 16 -12 0 -15 6 -11 23 9 35 -18 51 -90 54 -55 2 -67 7 -93 33 -25 24 -35
28 -54 21 -13 -4 -54 -12 -93 -16 -38 -4 -85 -13 -104 -21 -42 -18 -82 -18
-105 -1 -18 13 -16 15 15 35 52 32 77 63 81 102 l3 35 132 5 c108 4 136 8 150
23 17 16 16 18 -5 33 -12 8 -22 19 -22 25 0 13 85 11 225 -6 133 -16 269 -20
261 -7 -3 5 -36 17 -73 27 -37 10 -78 27 -91 38 -21 20 -25 20 -70 7 -94 -28
-173 -25 -290 11 -101 31 -115 33 -262 34 -94 0 -184 -6 -228 -14 l-72 -14
-102 34 c-55 18 -111 42 -124 52 l-24 18 21 28 c17 23 19 33 10 49 -19 36 -52
52 -110 52 -49 0 -57 3 -81 32 -22 26 -31 30 -53 24 -41 -10 -35 -44 18 -96
51 -50 56 -76 22 -108 -29 -27 -38 -27 -87 -2 -33 17 -40 26 -40 50 0 35 -23
45 -87 35 -38 -6 -49 -3 -69 16 -32 30 -30 37 8 41 21 2 34 9 36 19 3 19 -41
29 -131 29 -68 0 -86 8 -148 65 -67 62 -97 69 -299 69 -449 0 -1158 -13 -1275
-23 -71 -5 -384 -13 -695 -15 -311 -3 -690 -11 -843 -17 -243 -9 -397 -9
-1017 4 -47 1 -130 -4 -185 -12 -71 -9 -279 -14 -720 -17 -341 -2 -674 -8
-740 -13 -66 -5 -545 -10 -1064 -10 -519 -1 -948 -4 -953 -7 -5 -3 -195 -8
-421 -11 -227 -2 -428 -5 -447 -5 -19 0 -66 3 -104 7 -40 5 -136 3 -225 -4
-418 -32 -597 -41 -785 -41 -247 0 -236 -5 -292 145 -73 198 -183 389 -293
509 -32 33 -67 77 -79 97 -20 33 -73 69 -101 69 -33 0 -122 52 -151 89 -41 50
-64 52 -140 10z m10865 -940 c-57 -11 -612 -24 -602 -13 11 11 213 20 457 21
123 1 172 -2 145 -8z m-1636 -23 c-2 -2 -134 -6 -294 -10 -159 -3 -374 -9
-476 -12 -103 -4 -195 -3 -205 2 -14 6 -2 10 46 14 69 7 936 13 929 6z m-1739
-15 c29 -6 -38 -9 -185 -9 -129 0 -219 4 -205 8 33 10 332 11 390 1z m350 -1
c0 -6 -23 -9 -52 -9 -45 1 -49 2 -23 9 44 11 75 11 75 0z m-1836 -22 c-15 -7
-28 -7 -40 1 -16 9 -12 10 21 10 35 0 37 -2 19 -11z m-1429 -8 c3 -5 -4 -12
-17 -14 -13 -3 -432 -8 -933 -11 -500 -3 -1007 -8 -1125 -11 -118 -3 -212 -3
-208 1 18 19 791 36 1458 32 316 -2 618 0 670 3 52 4 107 7 122 8 15 1 30 -2
33 -8z m322 4 c-3 -3 -12 -4 -19 -1 -8 3 -5 6 6 6 11 1 17 -2 13 -5z m6036
-22 c9 -8 17 -18 17 -21 0 -3 -352 -7 -783 -8 -430 -2 -1050 -5 -1377 -9 -327
-3 -593 -4 -590 -1 7 6 1066 25 1815 32 505 5 859 17 874 31 5 4 20 -4 44 -24z
m-8898 -22 c4 -6 -5 -10 -20 -10 -15 0 -24 4 -20 10 3 6 12 10 20 10 8 0 17
-4 20 -10z m-285 -9 c0 -12 -201 -23 -286 -15 -41 4 -74 10 -74 14 0 4 81 7
180 8 99 0 180 -3 180 -7z m6103 -8 c-149 -2 -397 -2 -550 0 -153 1 -30 2 272
2 303 0 428 -1 278 -2z m3331 -192 c15 -17 15 -19 1 -25 -23 -8 -47 -7 -64 3
-12 8 -12 12 -2 25 18 21 44 20 65 -3z m311 -13 c99 -19 156 -23 323 -24 145
0 206 -4 215 -13 18 -18 -10 -33 -53 -28 -23 3 -46 -2 -67 -15 -32 -19 -32
-19 -52 1 -24 24 -94 45 -122 36 -32 -10 -53 -50 -39 -75 13 -25 6 -40 -21
-40 -11 0 -34 -13 -49 -29 -34 -34 -36 -32 -75 55 -14 34 -42 76 -60 94 -29
28 -37 31 -50 20 -8 -7 -15 -18 -15 -25 0 -8 -9 -10 -25 -7 -14 2 -32 -1 -41
-8 -19 -17 -40 2 -53 47 -15 51 -25 50 184 11z m-265 -18 c0 -5 -2 -10 -4 -10
-3 0 -8 5 -11 10 -3 6 -1 10 4 10 6 0 11 -4 11 -10z m-12 -77 c51 -19 56 -50
7 -45 -49 4 -165 51 -165 65 0 14 105 0 158 -20z m-3503 -23 c-3 -5 -26 -10
-50 -10 -24 0 -47 5 -50 10 -4 6 15 10 50 10 35 0 54 -4 50 -10z m210 1 c-18
-17 -145 -18 -145 -1 0 6 32 10 77 10 47 0 73 -4 68 -9z m295 -2 c-65 -11
-228 -11 -235 1 -4 7 44 10 137 9 106 -1 131 -4 98 -10z m-1377 -6 c-128 -2
-338 -2 -465 0 -128 1 -24 2 232 2 256 0 360 -1 233 -2z m4277 -3 c0 -5 -11
-17 -26 -26 -23 -15 -56 -16 -352 -10 -390 8 -528 22 -267 26 94 1 240 6 325
10 250 11 320 11 320 0z m748 -7 c10 -10 27 -23 38 -30 17 -10 15 -12 -19 -12
-59 -1 -121 37 -84 52 24 10 47 7 65 -10z m-434 -25 c16 -23 13 -38 -8 -38
-20 0 -67 40 -61 51 11 17 54 9 69 -13z m-242 -210 c-18 -18 -366 -18 -384 0
-9 9 32 12 192 12 163 0 201 -3 192 -12z m-1574 -95 c80 -14 114 -15 216 -6
75 6 304 8 606 4 607 -7 559 -15 -275 -41 -524 -17 -670 -22 -677 -26 -4 -3
-123 -4 -265 -4 -142 0 -307 -5 -367 -10 -93 -8 -112 -7 -126 5 -19 18 -53 19
-81 4 -15 -8 -29 -7 -52 2 -20 7 -125 14 -282 18 -149 4 -258 11 -269 18 -26
14 163 21 809 28 275 4 532 10 570 14 39 4 76 9 84 9 8 1 57 -6 109 -15z
m2000 -39 c25 -7 26 -12 12 -49 -9 -25 -11 -25 -35 -9 -24 16 -33 43 -18 57 8
8 12 8 41 1z m-1468 -194 c0 -13 -50 -13 -70 0 -11 7 -4 10 28 10 23 0 42 -4
42 -10z m1657 -37 c23 -16 24 -17 7 -24 -23 -9 -74 -11 -74 -3 0 13 22 44 31
44 5 0 21 -8 36 -17z m-2336 -9 c31 -11 74 -16 144 -15 55 1 137 -3 183 -8 60
-8 133 -6 265 4 100 8 277 14 392 14 116 1 288 6 382 12 157 10 324 8 476 -7
61 -6 72 -20 35 -43 -21 -13 -21 -14 -3 -27 10 -8 30 -14 44 -14 25 -1 25 -1
6 -13 -26 -15 -285 -21 -390 -9 -68 8 -84 7 -105 -7 -29 -18 -233 -25 -995
-35 l-450 -5 113 21 c164 31 129 44 -113 41 -104 -2 -218 0 -253 3 l-63 6 7
33 c3 19 1 35 -5 39 -32 20 1 26 138 26 111 0 159 -4 192 -16z m-2694 -20 c25
-4 34 -11 39 -30 4 -14 4 -27 1 -31 -3 -3 -210 -6 -459 -7 -419 -1 -453 0
-456 16 -3 15 13 18 170 21 95 3 226 9 291 15 76 7 127 8 143 2 17 -7 32 -6
47 2 45 25 118 29 224 12z m4763 -14 c0 -5 -7 -10 -16 -10 -8 0 -12 5 -9 10 3
6 10 10 16 10 5 0 9 -4 9 -10z m-2582 -20 c39 -7 72 -15 72 -19 0 -8 -301 -25
-432 -25 -40 0 -73 5 -80 12 -9 9 6 12 71 12 45 0 92 5 103 11 51 28 128 30
266 9z m-670 -17 l57 -17 -40 -7 c-22 -5 -91 -11 -152 -15 -122 -8 -138 -1
-80 34 41 26 138 28 215 5z m3242 -43 c0 -5 -5 -10 -11 -10 -5 0 -7 5 -4 10 3
6 8 10 11 10 2 0 4 -4 4 -10z m159 -24 c8 -10 9 -16 1 -21 -16 -10 -50 4 -50
21 0 18 34 18 49 0z m811 -430 c9 -12 5 -16 -24 -22 -20 -3 -48 -3 -62 0 -21
6 -24 9 -14 21 16 19 84 19 100 1z m-721 -15 c9 -6 10 -11 2 -15 -12 -8 -171
-10 -178 -2 -18 18 149 34 176 17z m-702 -217 c-3 -3 -12 -4 -19 -1 -8 3 -5 6
6 6 11 1 17 -2 13 -5z m-1077 -14 c0 -5 -7 -10 -16 -10 -8 0 -12 5 -9 10 3 6
10 10 16 10 5 0 9 -4 9 -10z m-3326 -249 c8 -13 -39 -23 -70 -15 -19 5 -22 9
-12 15 17 11 75 11 82 0z m780 -12 l15 -22 38 20 c34 18 42 19 58 7 12 -9 45
-14 91 -14 84 0 107 -15 37 -24 -58 -7 -84 -8 -288 -6 -88 0 -213 -5 -278 -11
-64 -7 -119 -10 -121 -8 -3 2 -7 16 -11 30 -6 24 -3 28 32 37 21 5 122 10 225
11 180 1 187 0 202 -20z m3966 4 c39 -16 -81 -25 -212 -17 -100 6 -109 9 -92
21 15 12 45 14 149 10 72 -3 141 -9 155 -14z m-1860 -23 c11 -7 3 -10 -30 -9
-34 0 -40 2 -25 9 27 12 37 12 55 0z m-117 -7 c4 -3 2 -13 -5 -20 -14 -18 4
-33 42 -33 29 0 56 -15 43 -23 -19 -12 -252 -29 -269 -19 -16 9 -16 10 2 20
10 5 38 13 62 17 59 10 52 22 -10 19 -29 -2 -116 -5 -193 -8 -140 -4 -216 -19
-197 -38 7 -7 43 -7 104 -1 97 10 188 7 188 -7 0 -23 -389 -48 -390 -25 -1 6
8 11 20 13 12 2 20 11 20 23 0 16 -7 19 -39 19 -45 0 -62 14 -28 24 12 4 137
13 277 21 140 9 262 17 270 19 26 7 96 6 103 -1z m1256 -7 c-12 -12 -400 -36
-569 -35 -355 2 -40 32 390 37 101 2 182 0 179 -2z m-4134 -46 c-8 -12 -65
-23 -101 -18 l-29 4 25 11 c31 14 113 17 105 3z m415 -5 c-14 -17 -46 -20 -55
-6 -5 9 15 16 54 20 11 1 11 -2 1 -14z m2753 0 c-3 -18 -65 -27 -92 -15 -25
12 -25 13 -6 21 27 11 101 7 98 -6z m1651 9 c25 -4 46 -10 46 -13 0 -9 -314
-32 -513 -38 -134 -5 -265 2 -254 13 9 10 167 24 333 30 99 3 181 8 183 10 7
6 154 5 205 -2z m-3000 -43 c6 -9 -89 -31 -135 -31 -41 0 -45 18 -7 29 42 12
135 14 142 2z m-396 -43 c-3 -7 -17 -15 -33 -16 -25 -3 -27 -2 -16 12 16 19
55 22 49 4z m2142 2 c0 -6 -27 -10 -62 -10 -45 0 -59 3 -48 10 20 13 110 13
110 0z m-1742 -22 c-7 -20 -129 -56 -218 -64 -44 -3 -80 -4 -80 -1 0 7 150 54
212 66 65 13 90 13 86 -1z m-273 -158 c-3 -5 -13 -10 -21 -10 -8 0 -14 5 -14
10 0 6 9 10 21 10 11 0 17 -4 14 -10z m-1419 -55 c-22 -17 -166 -21 -166 -5 0
5 30 11 68 13 37 2 78 4 92 5 24 1 24 1 6 -13z m2124 -65 c-20 -13 -90 -13
-90 0 0 6 24 10 53 10 37 0 48 -3 37 -10z m-525 -50 c3 -5 1 -10 -4 -10 -6 0
-11 5 -11 10 0 6 2 10 4 10 3 0 8 -4 11 -10z m-525 -61 c-14 -6 -70 -14 -125
-19 -55 -5 -126 -16 -157 -24 -31 -8 -80 -15 -110 -16 -177 -5 -181 12 -6 30
68 7 166 18 218 25 52 7 120 13 150 13 46 1 51 -1 30 -9z m224 -51 c3 -7 7
-27 10 -44 l5 -31 -63 -11 c-80 -15 -138 -15 -171 0 -39 17 -30 26 24 20 71
-6 125 29 66 44 -38 9 -30 22 18 27 88 8 108 7 111 -5z m-464 -47 c29 -2 -6
-20 -66 -34 -56 -13 -144 -10 -160 6 -3 3 18 10 48 16 82 17 100 18 178 12z
m205 -1 c3 -5 1 -10 -4 -10 -6 0 -11 5 -11 10 0 6 2 10 4 10 3 0 8 -4 11 -10z
m-960 -77 c27 3 92 11 143 17 71 9 96 10 105 1 32 -32 -62 -87 -140 -83 -128
7 -162 5 -218 -11 -32 -9 -87 -17 -121 -17 l-62 0 -7 46 c-9 63 0 69 77 52 73
-17 86 -15 99 19 l9 25 32 -27 c28 -24 38 -27 83 -22z m-1052 -64 c-13 -13
-172 -26 -160 -13 4 4 40 11 80 14 39 4 76 8 82 9 5 0 4 -4 -2 -10z m-3514 -8
c8 -5 -38 -11 -120 -15 -206 -9 -419 -12 -419 -5 0 19 512 37 539 20z m-611
-17 c101 -28 -179 -58 -318 -35 l-45 8 30 12 c65 27 256 36 333 15z m1845 4
c-27 -6 -74 -6 -125 0 l-83 9 125 1 c101 0 117 -2 83 -10z m520 5 c-29 -2 -77
-2 -105 0 -29 2 -6 3 52 3 58 0 81 -1 53 -3z m553 -329 c68 -32 38 -49 -111
-63 -86 -8 -146 -9 -210 -1 -50 5 -141 10 -203 10 -86 0 -113 3 -110 13 3 6
22 13 44 15 21 1 68 7 104 14 36 6 139 14 230 18 91 3 178 7 193 8 16 1 44 -5
63 -14z m-681 -34 c4 -6 -6 -10 -22 -10 -22 0 -25 2 -13 10 19 12 27 12 35 0z
m-4733 -242 c-5 -5 -22 -8 -38 -6 l-29 4 25 11 c28 12 57 6 42 -9z"/>
<path d="M15612 4098 c2 -15 11 -24 25 -26 20 -3 22 0 14 20 -12 32 -44 38
-39 6z"/>
<path d="M14467 3363 c-14 -13 -6 -23 18 -23 28 0 34 15 9 24 -19 7 -19 7 -27
-1z"/>
<path d="M13810 3340 c-23 -15 3 -25 55 -21 20 2 20 2 1 16 -23 17 -35 18 -56
5z"/>
<path d="M15799 4581 c-47 -47 -47 -69 -2 -91 18 -8 41 -25 53 -37 27 -29 52
-29 86 0 l27 24 -28 37 c-15 20 -31 51 -34 69 -5 26 -12 33 -34 35 -22 3 -37
-6 -68 -37z"/>
<path d="M15992 4420 c-47 -21 -51 -40 -10 -54 31 -11 68 -2 99 23 47 38 -22
62 -89 31z"/>
<path d="M16424 4339 c-3 -6 -2 -15 4 -21 15 -15 56 -5 60 15 3 13 -3 17 -27
17 -16 0 -33 -5 -37 -11z"/>
<path d="M16181 4098 c-13 -7 -24 -17 -25 -23 -2 -19 57 -38 121 -38 81 -1 97
13 47 42 -46 27 -111 36 -143 19z"/>
<path d="M16830 4020 c0 -5 9 -10 20 -10 11 0 20 5 20 10 0 6 -9 10 -20 10
-11 0 -20 -4 -20 -10z"/>
<path d="M16853 3963 c-25 -9 -14 -33 15 -33 35 0 45 9 31 27 -12 13 -25 15
-46 6z"/>
<path d="M17270 3745 c-10 -12 -8 -17 13 -26 30 -14 77 -4 77 15 0 28 -69 36
-90 11z"/>
<path d="M17150 3715 c0 -8 7 -15 15 -15 8 0 15 7 15 15 0 8 -7 15 -15 15 -8
0 -15 -7 -15 -15z"/>
<path d="M17621 3717 c-14 -18 -4 -27 28 -27 33 0 56 14 47 29 -10 15 -61 14
-75 -2z"/>
<path d="M16305 3466 c-49 -12 -49 -12 -26 -25 16 -9 42 -12 76 -8 44 4 59 1
91 -19 46 -28 76 -30 110 -8 33 22 18 38 -51 59 -62 17 -129 18 -200 1z"/>
<path d="M16098 3368 c-33 -11 -35 -23 -8 -38 22 -12 90 3 90 20 0 16 -54 27
-82 18z"/>
<path d="M16612 3248 c-23 -23 -12 -34 61 -56 39 -12 75 -22 80 -22 18 0 6 60
-15 74 -26 19 -109 21 -126 4z"/>
<path d="M16260 3216 c0 -9 7 -16 16 -16 17 0 14 22 -4 28 -7 2 -12 -3 -12
-12z"/>
<path d="M18601 3197 c-14 -18 -4 -27 30 -27 35 0 46 16 20 29 -26 14 -36 14
-50 -2z"/>
<path d="M16095 3171 c-3 -5 -1 -12 5 -16 5 -3 10 1 10 9 0 18 -6 21 -15 7z"/>
<path d="M16113 3103 c-21 -8 -15 -23 13 -33 17 -7 32 -6 46 1 21 11 21 12 3
25 -19 14 -40 17 -62 7z"/>
<path d="M18136 3091 c-17 -19 -17 -20 3 -30 28 -16 56 -14 72 5 11 14 10 18
-6 30 -26 19 -49 18 -69 -5z"/>
<path d="M18880 2871 c0 -19 22 -23 38 -7 15 15 14 16 -11 16 -15 0 -27 -4
-27 -9z"/>
<path d="M19136 2871 c-24 -9 -10 -20 30 -23 33 -2 57 9 49 23 -7 11 -52 11
-79 0z"/>
<path d="M19314 2869 c-9 -15 14 -29 49 -29 31 0 36 15 8 30 -26 13 -48 13
-57 -1z"/>
<path d="M17772 2848 c5 -15 52 -23 76 -13 14 5 14 7 2 15 -23 15 -82 12 -78
-2z"/>
<path d="M17618 2808 c-16 -5 -28 -13 -28 -18 0 -17 33 -33 67 -32 51 2 64 18
34 43 -26 21 -34 22 -73 7z"/>
<path d="M16425 2720 c-10 -16 4 -30 30 -30 29 0 43 19 24 31 -19 12 -46 11
-54 -1z"/>
<path d="M17643 2708 c-29 -14 -29 -29 0 -56 28 -26 84 -29 113 -7 18 15 18
16 -16 45 -36 31 -60 36 -97 18z"/>
<path d="M16771 2676 c-9 -10 -8 -15 2 -19 19 -7 41 8 33 22 -10 15 -21 14
-35 -3z"/>
<path d="M16625 2621 c-9 -15 34 -33 61 -27 13 4 24 13 24 21 0 17 -75 22 -85
6z"/>
<path d="M16332 2601 c-18 -11 10 -34 32 -25 20 8 21 20 0 28 -19 7 -16 7 -32
-3z"/>
<path d="M16110 2496 c-100 -39 -120 -50 -108 -58 24 -15 163 -6 265 17 33 8
18 33 -25 45 -49 13 -90 12 -132 -4z"/>
<path d="M19913 2473 c-24 -9 -13 -24 15 -21 15 2 26 8 25 13 -2 12 -23 16
-40 8z"/>
<path d="M15707 2449 c-9 -6 -15 -14 -12 -20 8 -12 85 -12 105 1 11 7 9 11
-13 19 -35 14 -57 13 -80 0z"/>
<path d="M17186 2281 c-29 -11 -7 -21 78 -36 73 -12 172 -10 181 5 17 27 -203
53 -259 31z"/>
<path d="M17850 2225 c-7 -8 -18 -15 -25 -15 -7 0 -18 -6 -24 -14 -25 -30 65
-50 102 -22 20 15 14 42 -14 56 -23 13 -24 13 -39 -5z"/>
<path d="M17307 2214 c-13 -13 -7 -24 14 -24 11 0 19 5 17 12 -5 14 -22 21
-31 12z"/>
<path d="M17675 1996 c-15 -10 -82 -15 -270 -19 -263 -6 -359 -18 -436 -58
-31 -15 -39 -25 -39 -47 0 -19 -11 -37 -42 -64 l-43 -37 185 0 c190 0 349 8
550 29 181 19 170 26 -70 41 -197 13 -231 22 -198 56 14 14 39 16 155 16 76
-1 194 -7 263 -15 69 -7 180 -13 247 -13 110 0 146 6 131 20 -7 7 -166 32
-258 40 -41 3 -93 11 -115 17 -37 10 -38 11 -17 19 13 5 20 13 17 19 -9 14
-37 12 -60 -4z"/>
<path d="M15975 1880 c-3 -5 1 -10 9 -10 9 0 16 5 16 10 0 6 -4 10 -9 10 -6 0
-13 -4 -16 -10z"/>
<path d="M16216 1647 c-17 -13 -16 -15 14 -41 26 -22 39 -26 64 -20 36 7 82
30 90 43 17 26 -135 42 -168 18z"/>
<path d="M15947 1639 c-81 -19 -113 -49 -85 -77 21 -21 -4 -32 -131 -52 -80
-13 -140 -29 -173 -46 -29 -15 -76 -34 -105 -44 l-53 -17 0 22 c0 24 -17 35
-52 35 -11 0 -28 10 -38 23 -17 20 -25 22 -112 20 -131 -4 -160 -12 -169 -47
-8 -27 -24 -45 -41 -46 -4 0 -8 12 -10 28 -2 19 -8 26 -18 22 -8 -3 -55 -4
-105 -3 -49 2 -112 -2 -140 -7 -27 -6 -85 -15 -128 -20 -43 -5 -99 -17 -123
-25 -25 -8 -63 -15 -85 -15 -54 0 -126 -19 -141 -37 -10 -13 -6 -14 33 -9 84
11 282 27 286 22 3 -2 -22 -16 -55 -31 -33 -15 -73 -40 -89 -57 l-28 -30 165
5 c186 6 247 19 402 88 126 56 293 109 343 109 15 0 15 -2 4 -16 -7 -8 -29
-24 -48 -34 -41 -20 -76 -56 -64 -63 4 -3 49 -11 99 -18 74 -10 115 -10 210 0
140 14 184 25 215 50 24 19 24 19 5 40 -12 13 -16 25 -10 30 5 5 82 30 171 55
89 25 174 51 187 58 19 8 29 8 40 -1 9 -8 16 -8 20 -2 4 5 1 13 -5 16 -7 5 -3
12 10 22 35 24 25 40 -29 52 -59 13 -99 13 -153 0z"/>
<path d="M15371 1597 c-8 -11 -6 -18 9 -32 20 -18 21 -18 42 2 11 12 17 26 14
32 -10 15 -51 14 -65 -2z"/>
<path d="M14731 1586 c-10 -11 -8 -16 9 -21 24 -8 80 3 80 15 0 22 -72 27 -89
6z"/>
<path d="M16325 1530 c-3 -5 -1 -10 4 -10 6 0 11 5 11 10 0 6 -2 10 -4 10 -3
0 -8 -4 -11 -10z"/>
<path d="M15393 1503 c-7 -2 -13 -11 -13 -19 0 -18 46 -18 53 0 9 23 -9 32
-40 19z"/>
<path d="M16188 1499 c-24 -14 -23 -29 2 -29 21 0 80 26 80 35 0 9 -65 4 -82
-6z"/>
<path d="M12580 1490 c-13 -9 -13 -11 0 -20 8 -5 20 -10 27 -10 19 0 27 21 12
31 -18 11 -21 11 -39 -1z"/>
<path d="M12130 1420 c0 -5 9 -19 20 -30 20 -20 22 -20 51 -3 59 35 57 43 -10
43 -34 0 -61 -4 -61 -10z"/>
<path d="M16005 1420 c-3 -5 -1 -10 4 -10 6 0 11 5 11 10 0 6 -2 10 -4 10 -3
0 -8 -4 -11 -10z"/>
<path d="M13214 1376 c-71 -12 -135 -25 -141 -29 -5 -3 -13 -39 -17 -78 -11
-117 3 -122 214 -93 63 8 125 22 137 30 26 16 50 68 60 127 11 74 -30 81 -253
43z"/>
<path d="M13738 1393 c-100 -4 -125 -14 -112 -47 8 -20 31 -20 77 -1 22 9 68
15 117 15 79 0 120 10 120 30 0 6 -24 9 -52 8 -29 -1 -96 -4 -150 -5z"/>
<path d="M11466 1380 c-19 -6 -19 -7 2 -12 12 -4 24 -2 27 2 8 13 -8 18 -29
10z"/>
<path d="M11286 1351 c-7 -11 22 -23 35 -15 5 3 9 9 9 15 0 12 -37 12 -44 0z"/>
<path d="M13865 1324 c-193 -22 -220 -27 -220 -44 0 -25 156 -25 256 0 80 20
109 33 109 51 0 5 -6 8 -12 8 -7 -1 -67 -8 -133 -15z"/>
<path d="M10921 1321 c-28 -18 73 -25 105 -7 29 15 29 15 -31 15 -33 1 -66 -3
-74 -8z"/>
<path d="M12602 1323 c-20 -8 -3 -23 26 -23 44 0 76 11 60 21 -14 9 -65 11
-86 2z"/>
<path d="M12460 1300 c0 -5 7 -10 15 -10 8 0 15 5 15 10 0 6 -7 10 -15 10 -8
0 -15 -4 -15 -10z"/>
<path d="M12897 1298 c-15 -5 -25 -14 -21 -19 7 -12 65 -11 84 1 13 9 13 11 0
20 -18 12 -27 11 -63 -2z"/>
<path d="M12585 1253 c-114 -15 -256 -54 -324 -89 -21 -11 -17 -12 35 -8 32 3
83 12 112 21 36 10 70 13 103 9 91 -12 219 22 219 59 0 12 -13 15 -57 14 -32
-1 -71 -4 -88 -6z"/>
<path d="M9554 1186 c-18 -14 -18 -15 8 -21 15 -4 36 -1 49 6 23 12 23 12 4
20 -29 11 -39 10 -61 -5z"/>
<path d="M9790 1080 c-238 -25 -368 -44 -390 -56 -24 -12 -22 -13 30 -15 97
-2 136 -24 85 -47 -50 -23 -26 -46 100 -94 28 -11 84 -22 125 -25 62 -4 84 -1
128 16 64 25 141 27 246 5 68 -14 81 -14 129 0 36 10 64 28 92 56 l40 41 -23
19 c-26 22 -153 63 -257 84 -91 18 -223 25 -305 16z"/>
<path d="M3750 1070 c0 -15 35 -29 49 -20 8 4 10 13 7 19 -9 14 -56 15 -56 1z"/>
<path d="M11181 1058 c-45 -17 -51 -22 -36 -30 34 -20 165 14 165 42 0 17 -72
10 -129 -12z"/>
<path d="M9175 1000 c-27 -5 -76 -9 -107 -9 -31 -1 -59 -5 -62 -10 -10 -15 93
-34 153 -28 60 7 147 33 157 48 6 11 -69 10 -141 -1z"/>
<path d="M6396 972 c-3 -5 1 -15 9 -22 17 -14 58 -4 52 13 -4 15 -53 22 -61 9z"/>
<path d="M8247 964 c-11 -12 3 -24 28 -24 30 0 55 10 55 21 0 10 -73 12 -83 3z"/>
<path d="M7162 927 c-18 -18 -32 -36 -32 -40 0 -3 14 -14 31 -23 28 -14 46
-14 148 -5 64 6 170 13 236 16 321 15 475 33 475 54 0 18 -31 19 -191 5 -90
-7 -240 -15 -334 -16 -159 -3 -173 -1 -215 19 -61 30 -81 29 -118 -10z"/>
<path d="M5869 940 c-10 -5 -26 -26 -38 -45 l-21 -36 33 -20 c36 -23 78 -22
337 5 74 8 212 22 305 31 159 16 195 24 195 46 0 14 -45 12 -285 -12 -233 -23
-355 -21 -355 6 0 8 -3 16 -8 19 -17 11 -148 16 -163 6z"/>
<path d="M4213 920 c-35 -15 -43 -24 -43 -45 0 -40 22 -43 101 -10 13 5 18 -2
23 -29 4 -19 14 -42 22 -51 23 -23 96 -19 128 6 44 35 49 54 26 99 -18 36 -24
40 -58 40 -20 -1 -50 -7 -66 -13 -26 -11 -32 -11 -48 5 -22 22 -33 22 -85 -2z"/>
<path d="M6913 933 c-17 -6 -17 -38 0 -51 6 -6 24 -13 40 -17 24 -6 27 -4 27
18 0 41 -32 65 -67 50z"/>
<path d="M4718 923 c-22 -5 -23 -36 -3 -53 20 -16 65 12 65 40 0 20 -20 24
-62 13z"/>
<path d="M5303 908 c3 -12 1 -30 -4 -40 -15 -29 6 -48 53 -48 39 0 118 33 118
50 0 5 -32 12 -71 16 -58 5 -73 10 -76 25 -3 11 -10 19 -15 19 -6 0 -8 -10 -5
-22z"/>
<path d="M5652 907 c-22 -24 -22 -24 -2 -42 17 -15 24 -16 50 -5 34 14 38 30
12 53 -25 22 -34 21 -60 -6z"/>
<path d="M9250 910 c-8 -5 -12 -11 -10 -13 13 -12 47 -15 60 -7 13 9 13 11 0
20 -19 12 -31 12 -50 0z"/>
<path d="M3440 890 c-12 -23 -4 -25 34 -10 33 12 34 30 1 30 -14 0 -29 -8 -35
-20z"/>
<path d="M3692 901 c-12 -7 -12 -12 0 -30 10 -17 21 -21 48 -19 30 3 35 7 38
31 3 25 1 27 -35 27 -21 0 -44 -4 -51 -9z"/>
<path d="M6575 836 c-19 -14 -19 -15 -1 -22 22 -8 70 7 68 21 -2 16 -45 17
-67 1z"/>
<path d="M3770 750 c0 -5 5 -10 10 -10 6 0 10 5 10 10 0 6 -4 10 -10 10 -5 0
-10 -4 -10 -10z"/>
</g>
</svg>
