<?xml version="1.0" standalone="no"?>
<!DOCTYPE svg PUBLIC "-//W3C//DTD SVG 20010904//EN"
 "http://www.w3.org/TR/2001/REC-SVG-20010904/DTD/svg10.dtd">
<svg version="1.0" xmlns="http://www.w3.org/2000/svg"
 width="2251.000000pt" height="767.000000pt" viewBox="0 0 2251.000000 767.000000"
 preserveAspectRatio="xMidYMid meet">

<g transform="translate(0.000000,767.000000) scale(0.100000,-0.100000)"
fill="#000000" stroke="none">
<path d="M22277 7664 c-15 -15 -7 -45 11 -42 9 2 17 12 17 22 0 20 -16 31 -28
20z"/>
<path d="M22400 7609 c0 -5 5 -7 10 -4 6 3 10 8 10 11 0 2 -4 4 -10 4 -5 0
-10 -5 -10 -11z"/>
<path d="M2917 7087 c-3 -8 -8 -44 -12 -82 l-8 -69 -22 26 c-13 15 -24 31 -26
37 -2 6 -26 12 -53 13 l-49 3 -12 -57 c-10 -53 -25 -87 -25 -60 0 27 -40 52
-84 52 -29 0 -52 7 -69 21 l-27 20 -20 -33 c-11 -18 -22 -37 -24 -43 -3 -5
-13 1 -24 14 -17 21 -22 22 -43 11 -13 -7 -46 -33 -74 -57 -27 -24 -65 -49
-82 -55 -22 -8 -33 -19 -33 -33 -7 -321 -34 -482 -131 -785 -47 -147 -75 -255
-84 -326 -5 -43 -13 -57 -49 -91 -26 -25 -51 -60 -62 -89 -22 -62 -20 -61 -41
-35 l-18 21 -100 -45 c-118 -53 -159 -84 -191 -145 -27 -50 -32 -126 -13 -190
10 -32 9 -42 -5 -61 -22 -32 -20 -56 4 -64 29 -9 25 -30 -10 -55 -17 -12 -38
-36 -46 -53 -23 -44 -14 -168 21 -282 65 -210 77 -270 82 -382 5 -104 4 -117
-22 -187 -25 -68 -27 -83 -20 -152 4 -43 20 -118 36 -167 51 -154 71 -253 68
-340 -3 -73 -1 -81 20 -98 12 -10 45 -22 73 -25 29 -4 59 -15 69 -25 25 -25
24 -76 -2 -118 -20 -33 -20 -40 -10 -167 21 -250 89 -512 168 -651 14 -24 43
-57 66 -75 23 -18 74 -60 113 -94 89 -76 145 -115 206 -142 53 -23 54 -25 63
-142 8 -105 51 -272 90 -355 34 -72 62 -102 238 -258 89 -79 116 -87 194 -61
l55 19 19 -24 c10 -13 19 -32 19 -42 0 -15 5 -17 30 -13 20 4 34 1 45 -10 32
-31 64 -31 98 2 55 52 73 57 197 57 150 0 193 19 318 139 91 88 127 110 166
100 12 -3 51 6 88 20 102 38 190 46 406 38 l193 -7 -31 -48 c-16 -26 -30 -52
-30 -57 0 -12 103 -24 131 -15 13 5 35 15 48 23 21 14 22 21 17 62 l-6 47 187
6 c104 4 289 11 412 17 137 6 1168 11 2637 13 l2412 2 24 -22 23 -22 49 32
c46 29 58 32 165 38 380 23 371 22 371 44 0 27 -32 32 -187 27 -158 -5 -191 4
-101 26 24 6 52 18 63 27 20 15 20 15 -10 41 -61 53 -132 74 -192 58 -27 -8
-29 -22 -5 -41 9 -8 13 -16 7 -19 -75 -35 -110 -61 -110 -84 0 -25 -2 -25 -80
-25 -129 1 -375 17 -380 26 -3 4 21 10 52 14 32 3 68 10 81 15 19 9 21 12 10
30 -11 17 -8 24 22 55 33 34 36 35 109 35 42 0 112 9 156 20 44 11 93 20 109
20 24 0 27 3 23 21 -7 25 -5 26 116 42 l98 13 30 -28 c16 -16 42 -34 57 -39
39 -16 188 -15 207 1 19 16 10 30 -21 30 -13 0 -24 5 -24 10 0 6 8 10 18 10 9
0 76 7 147 14 93 10 144 11 180 4 46 -9 55 -7 99 16 61 32 70 32 135 0 52 -26
53 -26 66 -7 8 11 29 23 46 27 32 6 32 6 26 55 l-6 49 376 7 c207 4 417 5 467
1 130 -8 312 6 333 27 15 14 13 16 -23 23 -40 7 -785 -1 -1091 -13 l-173 -6 0
22 c0 12 -16 37 -35 57 -19 19 -35 44 -35 55 0 19 -1 20 -29 3 -51 -30 -119 7
-75 41 30 22 94 18 146 -10 42 -22 54 -24 127 -18 79 6 81 5 115 -25 65 -57
125 -54 201 9 68 56 93 67 175 79 69 10 467 12 504 3 15 -4 16 -7 5 -15 -10
-7 -9 -8 6 -4 58 15 246 34 289 29 26 -3 79 0 116 7 62 12 72 11 107 -5 61
-30 127 -30 233 -2 194 51 345 58 495 22 68 -16 123 -7 165 26 l25 20 -91 -6
c-74 -5 -99 -3 -135 12 l-44 17 40 8 c22 4 74 7 115 8 41 0 102 7 135 15 85
21 93 20 68 -8 -11 -12 -32 -43 -46 -69 -15 -25 -41 -58 -58 -71 l-31 -24 113
-22 c177 -33 310 -44 479 -39 107 3 166 9 190 20 34 14 30 15 -110 21 -137 5
-304 30 -324 48 -5 5 2 13 18 18 34 13 45 40 23 56 -37 27 -18 41 69 51 75 9
89 21 76 65 -5 19 -13 41 -16 50 -11 26 48 47 185 65 84 11 154 14 217 10 81
-6 99 -4 140 14 36 16 43 23 32 30 -23 15 -268 12 -425 -5 -170 -18 -208 -18
-142 0 26 7 54 19 62 25 18 15 20 49 3 54 -54 16 -53 15 -30 39 11 12 23 34
27 48 10 41 -38 59 -145 52 -66 -4 -89 -1 -105 10 -31 24 -5 43 70 50 95 9
164 52 151 95 -13 41 100 62 229 42 70 -11 107 -10 235 2 154 16 183 25 162
51 -15 18 -5 27 29 27 53 0 79 -53 34 -70 -29 -11 -31 -22 -10 -40 8 -7 15
-18 15 -25 0 -13 -49 -35 -77 -35 -7 0 -30 -7 -50 -15 l-37 -16 25 -17 c21
-15 53 -17 274 -16 232 0 254 2 306 22 119 47 111 51 -95 45 -183 -6 -189 -5
-182 13 4 10 10 34 13 51 3 18 13 35 22 37 47 14 417 28 594 24 227 -6 275 1
330 53 l32 31 -120 -6 c-73 -4 -116 -3 -110 3 16 15 116 41 159 41 23 0 75 5
116 11 97 14 132 3 124 -39 -10 -48 43 -68 129 -50 52 11 67 29 46 54 -10 13
-10 17 2 25 25 16 39 10 61 -27 l22 -37 96 7 c106 7 171 23 148 37 -7 5 -27 9
-45 9 -70 0 -41 34 38 46 61 8 109 24 109 35 0 5 -262 9 -655 9 -556 0 -661 2
-691 15 -41 17 -38 29 13 46 43 14 123 7 232 -21 115 -29 201 -34 372 -20 122
10 161 16 188 33 30 18 43 19 133 13 l101 -6 76 37 c67 34 84 38 151 38 52 0
75 -4 76 -12 1 -7 2 -18 3 -23 2 -17 54 1 77 26 32 33 80 42 264 49 154 7 168
6 210 -14 55 -25 110 -27 153 -4 29 15 30 17 12 24 -11 4 -41 8 -67 8 -54 1
-71 18 -40 39 12 8 22 21 22 28 0 16 -2 16 -54 4 -25 -5 -46 -5 -58 1 -33 18
-19 29 37 29 30 0 75 5 99 12 42 11 46 10 110 -28 57 -34 63 -41 49 -51 -21
-16 -8 -32 59 -68 58 -32 102 -36 236 -20 49 5 112 4 190 -5 l116 -14 50 29
c37 21 70 30 121 34 67 6 70 7 70 32 0 42 20 56 93 63 196 19 196 19 263 -3
51 -18 70 -20 92 -12 15 6 27 14 27 18 0 15 -159 73 -216 79 -76 9 -53 17 114
39 142 19 177 34 149 63 -14 13 -35 13 -184 -3 -174 -18 -202 -26 -242 -68
l-23 -26 38 -6 c22 -4 44 -8 49 -9 23 -7 -131 -46 -179 -46 -60 0 -73 7 -77
40 -4 24 -7 25 -79 25 -41 0 -97 -4 -125 -9 -27 -5 -47 -6 -44 -2 8 8 143 46
165 46 22 0 84 30 84 41 0 14 -141 10 -202 -6 -31 -8 -77 -28 -103 -44 -67
-43 -118 -48 -223 -23 -85 21 -99 21 -517 12 -559 -12 -896 -12 -915 0 -8 5
-10 10 -5 11 66 6 340 20 370 19 199 -7 438 8 520 33 l70 22 -85 5 -85 5 55 8
c30 4 123 12 205 17 350 23 405 29 490 56 74 24 86 26 114 14 17 -7 41 -26 52
-41 23 -32 54 -37 97 -15 38 19 167 36 274 36 89 0 93 1 144 36 48 33 64 38
191 56 167 25 218 38 218 58 0 8 -15 18 -32 24 -18 5 -33 15 -33 22 0 7 -8 20
-17 30 -15 14 -30 16 -113 10 -220 -15 -874 -26 -1130 -19 l-275 8 220 5 c169
4 226 8 245 20 24 14 20 15 -73 22 -74 5 -107 12 -132 28 -19 12 -35 25 -35
29 0 4 35 8 79 8 154 1 649 24 844 40 227 18 297 14 477 -27 131 -30 292 -47
328 -35 36 11 25 32 -23 44 -30 7 -45 17 -45 27 0 9 -14 29 -31 45 l-31 29 32
56 c17 31 30 57 28 59 -2 1 -31 21 -66 42 l-63 40 -57 -23 c-31 -13 -78 -26
-104 -30 -42 -6 -48 -10 -48 -30 0 -13 -9 -28 -19 -34 -25 -13 -186 -13 -210
0 -10 5 -26 27 -35 49 -18 46 -51 61 -92 42 -30 -13 -31 -27 -1 -36 21 -6 20
-7 -10 -21 -39 -17 -42 -31 -10 -43 33 -13 9 -18 -114 -26 l-106 -6 4 25 c4
18 -1 27 -18 36 -29 16 -13 25 63 34 110 14 72 26 -79 26 -105 0 -153 4 -163
12 -7 7 -6 2 3 -12 21 -31 22 -60 2 -60 -22 0 -18 -28 5 -35 31 -10 24 -23
-17 -31 -32 -6 -39 -4 -55 20 -26 35 -54 33 -73 -4 -15 -30 -17 -30 -93 -29
-58 1 -68 3 -42 8 20 4 42 11 50 16 20 12 -17 23 -85 24 -27 1 -56 5 -63 10
-14 8 50 17 208 30 120 9 141 26 68 55 l-43 17 27 20 c16 12 25 26 21 34 -7
20 112 20 187 0 69 -18 150 -19 216 -1 34 9 66 11 100 5 62 -10 238 -10 327 0
38 4 90 5 115 1 64 -8 96 1 100 28 3 16 -3 23 -22 28 -29 7 -32 16 -12 33 23
19 7 46 -40 69 -24 12 -44 26 -44 31 0 20 190 65 250 59 27 -2 34 -7 32 -20
-2 -10 2 -18 8 -18 5 0 10 4 10 9 0 17 27 19 86 5 82 -19 333 -19 360 0 10 8
15 18 11 23 -5 4 -57 10 -117 13 -60 3 -111 8 -115 12 -10 10 25 25 78 32 26
4 47 10 47 14 0 4 -28 13 -62 19 -33 7 -68 19 -77 27 -14 15 -5 16 94 16 61 0
230 -5 376 -10 228 -9 278 -8 350 6 46 8 114 18 152 21 37 3 67 9 67 13 0 18
-30 28 -97 35 -147 14 -65 20 245 17 372 -3 624 -15 785 -38 110 -16 147 -15
147 4 0 9 -122 32 -340 63 -122 17 -212 21 -571 24 -650 7 -1145 34 -1164 65
-2 4 39 14 92 21 92 12 95 14 58 21 -153 32 -254 40 -640 49 -225 5 -484 13
-575 17 l-165 7 115 7 c75 5 184 2 315 -7 166 -13 234 -13 400 -4 151 9 278 9
515 1 315 -11 374 -9 367 12 -2 7 -51 14 -128 18 -68 4 -218 13 -334 20 -115
7 -280 13 -366 13 -85 1 -161 5 -167 9 -22 13 -12 26 21 26 17 0 38 4 46 9 18
12 -37 27 -141 41 -79 10 -1299 5 -1385 -6 -46 -5 -52 -4 -58 15 -3 12 -18 35
-32 51 -22 26 -31 30 -77 30 -44 0 -58 5 -85 29 -45 40 -105 53 -243 50 -119
-2 -141 2 -120 23 8 8 65 11 185 9 153 -2 176 0 191 15 10 9 14 20 9 24 -4 3
-97 4 -205 2 l-198 -4 -29 -30 -30 -30 -40 28 c-22 16 -41 34 -41 40 0 13 293
31 327 20 12 -4 56 1 99 10 86 17 113 18 291 9 114 -7 126 -6 165 15 32 17 70
24 163 30 446 32 457 33 604 22 80 -7 313 -14 516 -18 331 -5 372 -4 384 10
11 13 9 17 -15 27 -36 13 -215 28 -349 30 -116 1 -165 12 -100 24 54 9 65 13
65 22 -1 25 -22 33 -88 35 -59 2 -76 -1 -100 -19 -19 -14 -33 -18 -43 -12 -19
12 -96 11 -119 -1 -43 -23 -167 -35 -310 -30 -86 3 -140 8 -132 14 7 4 66 7
130 6 64 -2 137 -2 162 -1 l45 1 -45 30 c-41 26 -50 29 -80 20 -19 -6 -77 -10
-128 -10 -127 0 -166 22 -99 56 27 14 72 18 281 21 242 3 249 3 233 -15 -24
-26 -21 -41 10 -49 39 -9 182 10 277 38 79 23 79 23 50 36 -16 6 -63 13 -104
13 -64 2 -70 3 -45 11 18 6 100 8 200 4 94 -3 176 -2 183 3 22 15 -301 63
-508 77 -133 9 -143 11 -134 37 8 26 -10 38 -59 38 -32 0 -41 -5 -55 -30 -20
-35 -14 -34 -217 -20 -139 10 -275 35 -275 50 0 5 5 12 10 15 8 5 7 12 -1 22
-24 28 -74 46 -129 46 -63 0 -61 1 33 21 l68 14 39 -32 c22 -17 58 -46 81 -63
23 -18 49 -33 59 -33 26 0 50 27 50 55 0 35 34 53 130 70 106 19 135 40 88 63
-18 9 11 11 128 9 l152 -2 50 -47 c57 -53 53 -52 105 -37 27 7 37 15 35 27 -5
34 8 38 109 30 152 -11 306 -29 323 -38 28 -16 -83 -23 -171 -11 -47 6 -99 11
-115 11 l-29 -1 25 -14 c87 -47 439 -61 644 -26 59 11 113 24 118 29 6 6 -7
15 -39 25 -92 30 -207 43 -494 57 -112 5 -271 19 -354 31 -126 18 -216 23
-565 28 l-415 6 -13 28 c-8 15 -26 33 -40 38 -39 15 -139 1 -197 -28 -54 -28
-61 -28 -285 8 -80 13 -214 15 -293 4 l-49 -6 30 38 c17 21 32 47 34 58 3 18
-4 21 -68 26 -81 8 -134 18 -134 27 0 3 7 13 16 23 24 26 10 52 -46 87 -30 19
-52 40 -55 55 -6 22 -16 26 -138 47 -177 31 -222 34 -283 21 -65 -15 -79 -29
-63 -65 10 -21 9 -29 -4 -44 -22 -25 -21 -34 5 -51 21 -13 21 -14 2 -28 -14
-10 -36 -12 -87 -7 -62 6 -70 5 -92 -16 -31 -29 -18 -50 32 -50 19 0 44 -5 55
-11 21 -11 21 -12 -3 -25 -43 -24 -199 -15 -199 11 0 16 -41 30 -144 50 -102
20 -237 19 -331 -2 -73 -16 -77 -16 -113 3 -34 17 -68 19 -377 24 -303 5 -316
6 -120 8 391 4 485 13 485 48 0 18 -40 34 -85 34 -41 0 -48 9 -39 55 6 34 8
35 50 35 25 0 61 -7 81 -15 19 -8 47 -15 62 -15 26 0 37 6 121 65 l43 30 -94
14 c-103 15 -398 21 -441 8 -34 -9 -36 -27 -6 -46 l23 -15 -25 -7 c-14 -4
-563 -7 -1220 -8 -1528 -1 -4281 -19 -5185 -33 -385 -6 -747 -9 -805 -7 -161
5 -282 3 -865 -11 -297 -7 -767 -14 -1045 -15 -290 -1 -536 -7 -578 -13 -39
-5 -80 -8 -90 -6 -9 2 -114 10 -232 19 -119 8 -231 20 -250 25 -19 6 -123 15
-230 20 -107 5 -204 12 -215 14 -23 6 -311 30 -540 46 -194 13 -269 24 -445
65 -80 18 -167 36 -195 39 -80 10 -434 -10 -481 -27 l-41 -15 -22 45 c-15 32
-26 43 -37 39 -9 -3 -22 -6 -30 -6 -22 0 -46 -45 -53 -102 l-7 -53 -17 60
c-45 158 -60 198 -89 230 -33 38 -43 42 -51 22z m-177 -238 c0 -6 -4 -7 -10
-4 -5 3 -10 11 -10 16 0 6 5 7 10 4 6 -3 10 -11 10 -16z m1140 -139 c0 -5 -9
-10 -20 -10 -11 0 -20 5 -20 10 0 6 9 10 20 10 11 0 20 -4 20 -10z m21 -70
c57 -6 158 -24 224 -41 85 -21 174 -34 305 -44 368 -29 455 -37 458 -40 6 -6
-64 -25 -128 -34 -120 -16 -769 43 -868 80 -42 15 -79 19 -180 19 -127 0 -299
14 -310 25 -3 3 0 11 7 18 7 7 58 14 139 18 221 9 248 9 353 -1z m517 -27
c-10 -2 -26 -2 -35 0 -10 3 -2 5 17 5 19 0 27 -2 18 -5z m12921 -155 c10 -24
17 -46 14 -50 -7 -13 -49 -9 -114 9 -53 15 -60 19 -55 37 3 12 6 27 6 34 0 8
20 12 65 12 l66 0 18 -42z m716 -288 c30 -11 25 -27 -13 -41 -19 -7 -34 -6
-56 5 -17 8 -40 18 -51 21 l-20 7 20 8 c28 12 89 12 120 0z m-102 -67 c-13 -2
-33 -2 -45 0 -13 2 -3 4 22 4 25 0 35 -2 23 -4z m-405 -137 c114 -13 139 -22
129 -50 -9 -23 -49 -20 -103 9 -39 21 -61 25 -128 25 -45 0 -92 3 -106 7 l-25
7 25 7 c37 10 82 9 208 -5z m1631 -10 c-2 -2 -26 -6 -54 -10 -34 -4 -45 -3
-35 4 14 9 99 15 89 6z m-2292 -122 c-3 -3 -12 -4 -19 -1 -8 3 -5 6 6 6 11 1
17 -2 13 -5z m618 -4 c48 -6 34 -7 -70 -7 -80 0 -117 2 -95 7 45 10 91 10 165
0z m-695 -10 c-20 -13 -57 -13 -65 0 -4 6 11 10 37 10 31 0 39 -3 28 -10z
m1244 -9 c17 -7 16 -10 -18 -36 -35 -26 -37 -27 -56 -10 -19 17 -30 15 -65
-15 -27 -24 -65 -32 -65 -15 0 16 53 59 90 74 30 12 87 13 114 2z m156 -11 c0
-5 -7 -10 -15 -10 -8 0 -15 5 -15 10 0 6 7 10 15 10 8 0 15 -4 15 -10z m-2051
-49 c11 -7 9 -10 -7 -15 -25 -8 -74 3 -66 15 7 11 55 11 73 0z m1326 -11 c-3
-5 -20 -10 -36 -10 -18 0 -28 4 -24 10 3 6 20 10 36 10 18 0 28 -4 24 -10z
m-922 -7 c-7 -2 -21 -2 -30 0 -10 3 -4 5 12 5 17 0 24 -2 18 -5z m610 -140
c-13 -2 -35 -2 -50 0 -16 2 -5 4 22 4 28 0 40 -2 28 -4z m-42 -72 c18 -7 -2
-10 -78 -10 -57 -1 -103 1 -103 4 0 24 125 28 181 6z m104 -91 c-3 -5 -21 -10
-38 -10 -24 0 -28 3 -17 10 20 13 63 13 55 0z m1695 -150 c11 -7 4 -10 -25
-10 -22 0 -47 5 -55 10 -11 7 -4 10 25 10 22 0 47 -5 55 -10z m128 3 c-10 -2
-28 -2 -40 0 -13 2 -5 4 17 4 22 1 32 -1 23 -4z m-389 -104 c-16 -6 -35 -6
-50 0 -20 8 -16 10 26 10 43 -1 46 -2 24 -10z m-2122 -75 c-3 -3 -12 -4 -19
-1 -8 3 -5 6 6 6 11 1 17 -2 13 -5z m3171 -11 c-10 -2 -26 -2 -35 0 -10 3 -2
5 17 5 19 0 27 -2 18 -5z m989 -129 c-3 -3 -12 -4 -19 -1 -8 3 -5 6 6 6 11 1
17 -2 13 -5z m-1462 -23 c127 -11 151 -17 135 -36 -7 -8 -31 -13 -63 -12 -54
1 -132 -27 -121 -44 3 -5 38 -9 78 -9 43 0 77 -5 84 -12 15 -15 15 -56 1 -112
l-11 -44 -121 5 c-73 3 -194 -2 -300 -11 -231 -21 -388 -21 -427 -1 -26 13
-29 19 -23 46 7 38 -6 49 -63 49 -31 0 -51 -8 -79 -30 -21 -17 -50 -33 -64
-36 -14 -3 -31 -7 -38 -9 -6 -2 -40 3 -75 12 -34 8 -125 18 -201 22 -139 8
-171 17 -142 41 34 28 13 60 -40 60 -13 0 -26 4 -29 9 -12 18 163 22 739 17
325 -3 614 -3 643 1 50 6 52 7 36 24 -25 27 -67 37 -194 43 -63 3 -128 9 -145
13 -70 18 248 28 420 14z m-27 -388 c-16 -2 -40 -2 -55 0 -16 2 -3 4 27 4 30
0 43 -2 28 -4z m-933 -52 l40 -9 -40 0 c-22 0 -62 3 -90 8 l-50 7 50 1 c28 1
68 -3 90 -7z m-429 -47 c27 -11 69 -17 134 -17 92 0 140 -8 140 -24 0 -5 -33
-8 -72 -8 -40 0 -109 -2 -153 -5 -79 -5 -80 -5 -93 23 -7 15 -10 32 -7 37 8
13 6 13 51 -6z m-1791 -10 c108 -5 147 -10 172 -24 17 -10 40 -16 51 -13 21 5
52 -20 52 -43 0 -20 -208 -20 -276 1 -65 20 -265 55 -316 55 -34 0 -39 2 -28
15 12 14 112 25 175 19 17 -2 93 -6 170 -10z m1418 1 c18 -9 43 -25 57 -36
l25 -21 -52 6 c-39 4 -60 0 -90 -15 -26 -14 -48 -18 -68 -14 -116 24 -152 24
-278 0 -37 -7 -38 -7 -31 19 5 21 3 26 -13 26 -11 0 -34 -11 -53 -25 -30 -22
-44 -25 -114 -25 -45 0 -88 5 -96 10 -19 12 -10 14 85 10 68 -2 72 -1 108 33
20 20 47 38 59 40 13 2 115 5 226 6 164 1 210 -2 235 -14z m-855 -45 c118 -11
107 -25 -30 -37 -120 -11 -183 -9 -193 7 -3 5 13 11 34 15 22 3 47 13 58 21
10 8 27 11 38 8 11 -3 53 -10 93 -14z m1117 11 c19 -8 19 -8 -2 -15 -30 -10
-71 2 -52 15 17 10 27 10 54 0z m-2415 -47 c0 -8 -5 -12 -10 -9 -6 4 -8 11 -5
16 9 14 15 11 15 -7z m2434 -311 c4 -5 31 -15 59 -24 l52 -15 -188 -8 c-103
-3 -192 -4 -197 -1 -5 3 -72 1 -148 -4 -94 -8 -173 -8 -247 -1 -126 12 -228
30 -219 39 12 13 876 26 888 14z m139 0 c-7 -2 -21 -2 -30 0 -10 3 -4 5 12 5
17 0 24 -2 18 -5z m-608 -283 c4 -6 -7 -10 -24 -10 -17 0 -31 5 -31 10 0 6 11
10 24 10 14 0 28 -4 31 -10z m-177 -7 c-10 -2 -28 -2 -40 0 -13 2 -5 4 17 4
22 1 32 -1 23 -4z m202 -51 c0 -4 -18 -13 -40 -19 -41 -10 -49 -6 -28 15 13
13 68 17 68 4z m-302 -9 c-32 -2 -86 -2 -120 0 -35 2 -9 3 57 3 66 0 94 -1 63
-3z m-493 -18 c-32 -15 -189 -20 -246 -8 l-34 7 30 7 c17 4 86 7 155 7 114 0
122 -1 95 -13z m-1130 -4 c27 -6 24 -8 -25 -14 -50 -6 -123 3 -137 17 -8 8
125 5 162 -3z m318 -3 c-16 -8 -36 -8 -65 -1 l-43 11 65 0 c53 1 61 -1 43 -10z
m1872 -168 c-3 -5 -21 -10 -38 -10 -24 0 -28 3 -17 10 20 13 63 13 55 0z
m-1500 -130 c4 -6 -18 -10 -60 -10 -42 0 -64 4 -60 10 3 6 30 10 60 10 30 0
57 -4 60 -10z m-250 -121 c-46 -21 -139 -26 -133 -6 6 15 48 25 118 25 l55 0
-40 -19z m-255 2 c21 -6 22 -8 7 -14 -23 -9 -108 3 -101 14 6 10 58 10 94 0z
m-1710 -21 c0 -6 -77 -10 -212 -10 -141 0 -208 4 -198 10 20 13 410 13 410 0z
m-912 -7 c-49 -2 -127 -2 -175 0 -49 1 -9 3 87 3 96 0 136 -2 88 -3z m315 0
c-13 -2 -35 -2 -50 0 -16 2 -5 4 22 4 28 0 40 -2 28 -4z m835 -78 c12 -9 27
-15 34 -14 35 4 43 -2 24 -16 -14 -10 -44 -15 -95 -15 l-76 1 33 29 c37 34 49
36 80 15z m1740 -5 c36 -14 79 -20 140 -21 l87 -1 -90 -14 c-49 -7 -128 -16
-175 -20 -78 -7 -84 -6 -71 9 7 10 22 17 33 17 29 0 16 23 -18 32 -39 10 -64
2 -91 -30 l-23 -27 -71 25 c-40 13 -68 25 -63 27 23 7 156 21 219 22 48 1 86
-5 123 -19z m-728 0 c0 -5 -9 -10 -19 -10 -11 0 -23 5 -26 10 -4 6 5 10 19 10
14 0 26 -4 26 -10z m-1948 -22 c-17 -8 -26 -8 -34 0 -9 9 -4 12 23 11 32 0 33
-1 11 -11z m-375 -4 c-3 -3 -12 -4 -19 -1 -8 3 -5 6 6 6 11 1 17 -2 13 -5z
m1988 -49 c0 -13 -40 -18 -83 -10 -27 5 -32 9 -21 16 18 12 104 7 104 -6z
m-350 -125 c-3 -5 -18 -10 -33 -10 -21 0 -24 2 -12 10 20 13 53 13 45 0z
m-180 -80 c3 -5 -1 -10 -9 -10 -9 0 -16 5 -16 10 0 6 4 10 9 10 6 0 13 -4 16
-10z m-64 -140 c10 -6 19 -15 19 -19 0 -14 -45 -22 -79 -15 -30 6 -31 8 -15
25 19 21 46 24 75 9z m347 -67 c-2 -12 -14 -19 -33 -21 l-30 -2 24 20 c29 25
44 26 39 3z m-1498 -63 c-8 -5 -33 -9 -55 -9 -39 1 -39 2 -10 9 17 4 41 8 55
9 20 0 22 -1 10 -9z m-436 -9 c7 -10 -23 -20 -42 -14 -6 3 -10 9 -6 14 7 12
41 12 48 0z m-596 -16 c58 -9 53 -22 -13 -30 -67 -9 -191 3 -178 16 13 13 92
28 123 24 14 -2 44 -7 68 -10z m196 -13 c6 -10 -21 -52 -33 -52 -13 0 -21 28
-15 45 7 16 39 21 48 7z m1086 -22 c-14 -4 -54 -8 -90 -7 l-65 0 50 7 c28 4
68 7 90 7 34 1 36 0 15 -7z m-1278 -62 c-6 -6 -15 -8 -19 -4 -4 4 -1 11 7 16
19 12 27 3 12 -12z m578 8 c0 -3 -4 -8 -10 -11 -5 -3 -10 -1 -10 4 0 6 5 11
10 11 6 0 10 -2 10 -4z m1259 -17 c37 -13 41 -29 6 -29 -14 0 -29 8 -35 20
-12 23 -13 23 29 9z m-81 -16 c-3 -16 -24 -19 -223 -24 -121 -3 -229 -3 -240
2 -13 5 6 8 55 9 41 1 129 8 195 15 185 19 217 18 213 -2z m711 -14 c24 -9 29
-14 19 -20 -21 -14 -44 -10 -69 11 -23 19 -23 19 -3 20 12 0 36 -5 53 -11z
m-2110 -18 c14 -9 -81 -21 -160 -21 -51 0 -62 11 -31 30 18 11 166 4 191 -9z
m1386 -40 c38 -6 39 -8 18 -19 -28 -15 -65 -15 -139 0 l-59 13 45 6 c65 9 90
9 135 0z m-440 -61 c-3 -5 -17 -10 -31 -10 -14 0 -22 4 -19 10 3 6 17 10 31
10 14 0 22 -4 19 -10z m-2260 -107 c31 -5 35 -8 20 -14 -26 -10 -183 -11 -215
-1 -44 13 127 26 195 15z m-1800 -34 c-36 -12 -293 -25 -283 -14 7 8 162 22
253 23 52 0 56 -1 30 -9z m365 2 c0 -4 -52 -9 -115 -9 -70 -1 -113 3 -110 9 8
11 225 12 225 0z m-695 -11 c14 -6 0 -8 -45 -8 -54 1 -59 2 -30 8 47 10 52 10
75 0z m-1466 -59 c9 -6 4 -10 -18 -13 -31 -4 -43 6 -18 15 18 8 21 8 36 -2z
m3856 -21 c12 -23 12 -30 3 -30 -7 0 -22 -3 -33 -5 -11 -3 -27 -1 -35 4 -12 8
-11 14 10 35 30 33 36 33 55 -4z m-5928 4 c-12 -12 -223 -33 -270 -27 -26 3
-45 8 -42 11 7 7 140 18 244 20 41 1 72 -1 68 -4z m569 -9 c-21 -16 -107 -21
-90 -6 11 11 40 18 79 20 28 0 29 0 11 -14z m3184 -26 l35 -1 -28 -10 c-35
-13 -134 0 -102 13 11 4 29 6 40 4 11 -3 36 -5 55 -6z m509 5 c75 -15 17 -24
-161 -24 -105 0 -189 3 -186 6 19 18 277 32 347 18z m-849 -14 c-23 -14 -134
-23 -181 -14 l-44 8 45 7 c74 10 197 10 180 -1z m1768 3 c-16 -2 -40 -2 -55 0
-16 2 -3 4 27 4 30 0 43 -2 28 -4z m-4115 -10 c-13 -2 -35 -2 -50 0 -16 2 -5
4 22 4 28 0 40 -2 28 -4z m1167 -9 c162 0 306 -2 320 -4 14 -2 -137 -9 -335
-16 -270 -10 -375 -10 -422 -2 -50 9 -88 8 -203 -7 -93 -12 -175 -16 -243 -13
-115 6 -247 35 -225 50 8 6 167 6 413 1 220 -4 533 -8 695 -9z m690 6 c17 -6
0 -8 -55 -9 -55 0 -75 2 -65 9 18 11 84 11 120 0z m147 4 c-3 -3 -12 -4 -19
-1 -8 3 -5 6 6 6 11 1 17 -2 13 -5z m-2482 -34 l30 -14 -38 -4 c-21 -2 -66 4
-100 12 -55 14 -69 14 -122 1 -70 -17 -95 -18 -95 -6 0 31 262 39 325 11z
m4555 -64 c36 -17 46 -25 33 -28 -30 -6 -58 2 -89 28 -39 31 -13 32 56 0z
m-5930 -361 c138 -22 153 -26 143 -36 -19 -19 -170 -28 -468 -28 -274 0 -307
1 -285 14 16 9 56 15 115 15 54 0 137 10 205 24 139 29 168 30 290 11z m4900
11 c0 -3 -4 -8 -10 -11 -5 -3 -10 -1 -10 4 0 6 5 11 10 11 6 0 10 -2 10 -4z
m231 -25 l44 -9 -57 -1 c-56 -1 -76 8 -63 29 5 8 11 8 20 0 7 -6 32 -15 56
-19z m-4246 -1 c-3 -5 -17 -10 -31 -10 -14 0 -22 4 -19 10 3 6 17 10 31 10 14
0 22 -4 19 -10z m497 0 c108 0 119 -2 116 -17 -3 -16 -19 -18 -158 -18 -123
-1 -160 2 -180 15 -25 15 -25 15 25 21 28 3 56 4 63 2 8 -1 68 -3 134 -3z
m362 -10 l30 -19 -28 -10 c-38 -15 -65 -14 -127 6 l-52 17 29 13 c45 19 115
16 148 -7z m321 10 c-3 -5 -23 -10 -43 -10 -28 0 -33 3 -22 10 20 13 73 13 65
0z m-1411 -6 c22 -9 20 -21 -5 -27 -24 -6 -71 12 -63 24 6 10 45 12 68 3z
m2615 -14 l26 -7 -26 -11 c-28 -11 -465 -9 -477 2 -3 3 21 6 54 7 32 0 106 6
164 14 100 13 204 11 259 -5z m936 6 c87 -3 168 0 192 6 24 6 59 7 80 3 34 -6
36 -8 18 -18 -21 -13 -529 -15 -560 -3 -34 13 -3 24 57 20 35 -2 131 -6 213
-8z m790 4 c3 -5 1 -10 -4 -10 -6 0 -11 5 -11 10 0 6 2 10 4 10 3 0 8 -4 11
-10z m-4682 -7 c-7 -2 -19 -2 -25 0 -7 3 -2 5 12 5 14 0 19 -2 13 -5z m102 -3
c-8 -13 -45 -13 -65 0 -11 7 -3 10 28 10 26 0 41 -4 37 -10z m2010 -2 l40 -12
-90 -9 c-49 -5 -128 -5 -175 -1 l-85 8 60 12 c79 16 200 17 250 2z m1363 0
c-3 -9 -49 -14 -161 -18 -87 -3 -157 -2 -157 2 0 10 120 22 263 26 43 2 58 -1
55 -10z m-5288 -428 c0 -5 -4 -10 -10 -10 -5 0 -10 5 -10 10 0 6 5 10 10 10 6
0 10 -4 10 -10z m30 -14 c0 -3 -4 -8 -10 -11 -5 -3 -10 -1 -10 4 0 6 5 11 10
11 6 0 10 -2 10 -4z"/>
<path d="M17412 4418 c3 -7 13 -15 22 -16 12 -3 17 1 14 10 -3 7 -13 15 -22
16 -12 3 -17 -1 -14 -10z"/>
<path d="M16600 6749 c-24 -10 -24 -11 -6 -25 24 -17 31 -17 58 -3 21 11 21
12 3 25 -22 16 -22 16 -55 3z"/>
<path d="M16292 6684 c-12 -8 -22 -21 -22 -28 0 -20 38 -65 70 -81 26 -13 33
-13 75 6 33 15 62 20 98 17 46 -3 52 -1 55 17 5 34 -21 56 -83 71 -81 19 -165
18 -193 -2z"/>
<path d="M17917 6613 c-7 -13 22 -73 39 -80 18 -7 84 27 84 43 0 30 -109 62
-123 37z"/>
<path d="M19020 6250 c-13 -9 -13 -11 0 -20 19 -13 60 -13 60 0 0 5 -9 14 -19
20 -24 12 -22 12 -41 0z"/>
<path d="M19145 6236 c-18 -13 -18 -14 4 -21 20 -6 71 16 71 30 0 11 -57 4
-75 -9z"/>
<path d="M20464 6216 c-18 -14 -18 -15 -1 -21 23 -9 47 1 47 20 0 19 -20 19
-46 1z"/>
<path d="M20065 6090 c-7 -11 1 -15 50 -24 l30 -7 -25 21 c-28 22 -46 25 -55
10z"/>
<path d="M20394 6076 c-18 -14 -18 -15 -1 -22 10 -3 30 -1 45 6 25 12 26 13 7
21 -28 11 -29 11 -51 -5z"/>
<path d="M19747 6073 c-16 -15 -5 -24 25 -21 41 4 50 28 11 28 -17 0 -33 -3
-36 -7z"/>
<path d="M19766 5865 c4 -8 12 -15 20 -15 8 0 14 7 14 15 0 8 -9 15 -20 15
-13 0 -18 -5 -14 -15z"/>
<path d="M20545 5731 c-3 -5 0 -13 5 -16 16 -10 62 4 55 15 -8 13 -52 13 -60
1z"/>
<path d="M19655 5499 c-4 -6 -5 -13 -2 -16 7 -7 27 6 27 18 0 12 -17 12 -25
-2z"/>
<path d="M18872 5492 c-22 -14 41 -35 79 -27 23 5 28 10 18 15 -24 14 -83 21
-97 12z"/>
<path d="M19798 5303 c7 -3 16 -2 19 1 4 3 -2 6 -13 5 -11 0 -14 -3 -6 -6z"/>
<path d="M21112 4898 c5 -15 37 -18 41 -3 1 6 -9 12 -22 13 -16 3 -22 -1 -19
-10z"/>
<path d="M19662 4651 c-20 -12 -10 -46 12 -46 27 0 46 33 26 45 -18 12 -21 12
-38 1z"/>
<path d="M20022 4648 c-16 -16 -15 -38 2 -38 8 0 27 5 43 11 27 10 27 11 9 25
-24 17 -38 18 -54 2z"/>
<path d="M18676 4491 c-7 -11 22 -23 35 -15 5 3 7 10 4 15 -8 12 -32 12 -39 0z"/>
<path d="M20105 4490 c-4 -7 -3 -16 3 -22 14 -14 45 -2 40 15 -6 16 -34 21
-43 7z"/>
<path d="M19255 4442 l-30 -17 59 -3 c67 -4 95 11 52 28 -36 13 -45 12 -81 -8z"/>
<path d="M20154 4310 c-68 -35 -100 -57 -92 -65 3 -3 27 -11 53 -18 25 -7 46
-16 46 -22 0 -5 -30 -13 -66 -18 -37 -4 -75 -12 -86 -17 -21 -12 -28 -65 -6
-58 6 3 37 13 67 23 30 10 66 26 80 35 20 14 39 17 95 13 86 -6 111 7 101 53
-4 17 -20 47 -37 67 -39 47 -73 48 -155 7z"/>
<path d="M22300 4324 c0 -8 5 -12 10 -9 6 3 10 10 10 16 0 5 -4 9 -10 9 -5 0
-10 -7 -10 -16z"/>
<path d="M20755 4296 c-11 -8 -16 -20 -12 -30 5 -14 25 -16 139 -15 153 1 196
10 133 28 -22 6 -74 14 -115 17 -41 3 -87 7 -101 9 -15 2 -35 -2 -44 -9z"/>
<path d="M20855 4197 c-22 -7 -40 -19 -40 -26 0 -30 74 -50 318 -87 213 -31
252 -35 273 -24 42 23 28 38 -60 65 -227 69 -414 97 -491 72z"/>
<path d="M20342 4154 c-25 -17 -29 -44 -7 -44 8 0 23 -9 34 -21 l19 -21 38 25
c22 13 50 28 64 32 24 8 24 9 -15 26 -49 23 -103 24 -133 3z"/>
<path d="M19360 4100 c0 -5 7 -10 15 -10 8 0 15 5 15 10 0 6 -7 10 -15 10 -8
0 -15 -4 -15 -10z"/>
<path d="M18655 4080 c-3 -5 1 -10 9 -10 9 0 16 5 16 10 0 6 -4 10 -9 10 -6 0
-13 -4 -16 -10z"/>
<path d="M20330 4063 c-56 -8 -70 -14 -90 -35 -35 -38 -27 -51 28 -43 93 13
138 42 117 75 -6 10 -10 10 -55 3z"/>
<path d="M20575 4051 c-22 -10 -49 -26 -60 -35 -19 -16 -16 -17 55 -13 84 4
166 32 139 47 -35 20 -93 21 -134 1z"/>
<path d="M20820 4035 c-10 -12 -9 -16 3 -21 19 -7 60 14 52 27 -9 14 -41 11
-55 -6z"/>
<path d="M20982 4015 c28 -16 72 -10 46 6 -7 5 -26 9 -43 8 l-30 0 27 -14z"/>
<path d="M20668 3964 c-16 -8 -28 -19 -28 -24 0 -15 109 -24 138 -10 l27 12
-40 18 c-48 23 -62 24 -97 4z"/>
<path d="M20137 3946 c-20 -8 -44 -20 -53 -27 -14 -11 -11 -14 23 -24 l38 -11
-40 -21 c-22 -11 -56 -24 -75 -28 -19 -4 -46 -14 -59 -22 -23 -15 -24 -16 -6
-29 47 -34 233 -7 320 46 65 40 155 80 194 86 65 10 51 30 -26 37 -113 11
-275 7 -316 -7z"/>
<path d="M19365 3874 c-11 -2 -66 -14 -123 -26 -136 -29 -114 -43 68 -43 168
0 300 34 234 59 -23 9 -154 16 -179 10z"/>
<path d="M19532 3766 c-28 -15 -22 -21 54 -59 38 -19 54 -23 63 -14 22 22 11
46 -29 67 -45 23 -57 24 -88 6z"/>
<path d="M17917 3349 c-9 -6 -17 -14 -17 -19 0 -12 40 -13 59 -1 21 14 -19 32
-42 20z"/>
<path d="M17775 3340 c-3 -5 -2 -10 4 -10 5 0 13 5 16 10 3 6 2 10 -4 10 -5 0
-13 -4 -16 -10z"/>
<path d="M17476 3312 c-9 -15 19 -33 38 -26 9 4 15 12 13 18 -5 14 -43 20 -51
8z"/>
<path d="M17330 3255 c10 -13 8 -22 -15 -55 -34 -49 -26 -64 31 -57 31 3 60
17 96 44 29 22 64 46 78 53 l25 13 -23 10 c-15 7 -34 6 -61 -1 -47 -15 -108
-15 -116 -2 -3 6 -11 10 -17 10 -6 0 -6 -6 2 -15z"/>
<path d="M17705 3226 c-27 -7 -59 -17 -69 -23 -19 -10 -18 -11 3 -22 35 -19
81 -10 104 21 12 15 19 29 16 31 -2 2 -26 -1 -54 -7z"/>
<path d="M17680 3138 c-63 -5 -161 -10 -217 -11 -93 -2 -104 -4 -125 -26 l-23
-23 180 6 c200 6 365 32 365 57 0 10 -14 10 -180 -3z"/>
<path d="M17190 3084 c0 -9 7 -14 17 -12 25 5 28 28 4 28 -12 0 -21 -6 -21
-16z"/>
<path d="M17080 3070 c0 -5 11 -10 24 -10 14 0 28 5 31 10 4 6 -7 10 -24 10
-17 0 -31 -4 -31 -10z"/>
<path d="M15880 3021 c-108 -25 -110 -27 -65 -40 82 -23 186 -4 224 42 12 15
9 17 -35 16 -27 0 -83 -9 -124 -18z"/>
<path d="M15050 2919 c0 -5 5 -7 10 -4 6 3 10 8 10 11 0 2 -4 4 -10 4 -5 0
-10 -5 -10 -11z"/>
<path d="M15386 2811 c-6 -10 33 -23 46 -15 4 3 8 9 8 15 0 12 -47 12 -54 0z"/>
<path d="M15661 2561 c-7 -5 -10 -14 -7 -20 9 -14 41 -14 68 0 17 9 18 13 7
20 -18 11 -50 11 -68 0z"/>
<path d="M14950 2510 c-15 -9 -17 -8 36 -25 9 -3 34 0 57 6 30 8 37 13 26 20
-18 11 -100 11 -119 -1z"/>
<path d="M22274 2456 c-7 -30 13 -95 31 -102 7 -3 23 -1 34 6 24 13 21 48 -9
90 -24 35 -48 37 -56 6z"/>
<path d="M22200 2420 c0 -6 -16 -18 -36 -26 -45 -19 -43 -48 3 -52 36 -4 64
26 56 59 -6 22 -23 36 -23 19z"/>
<path d="M21897 2403 c-13 -12 -7 -43 8 -43 9 0 15 9 15 25 0 24 -10 32 -23
18z"/>
<path d="M13842 2261 c-18 -11 7 -21 50 -21 26 0 29 2 18 15 -14 16 -47 20
-68 6z"/>
<path d="M13410 2184 c-60 -7 -180 -35 -215 -50 -24 -10 -35 -21 -37 -40 -3
-28 -5 -30 -82 -66 -58 -28 -63 -42 -17 -46 58 -6 95 6 167 53 83 54 176 85
254 85 43 0 64 5 84 21 16 13 24 25 19 30 -11 11 -122 19 -173 13z"/>
<path d="M13420 2020 c-28 -28 -25 -40 9 -40 28 0 81 33 81 51 0 18 -70 9 -90
-11z"/>
<path d="M11825 1940 c-12 -4 -27 -15 -34 -24 -12 -14 -10 -16 12 -16 29 0 77
19 77 31 0 5 -27 21 -33 18 -1 0 -11 -4 -22 -9z"/>
<path d="M12640 1940 c-13 -9 -13 -11 0 -20 8 -5 21 -10 28 -10 19 0 52 19 52
30 0 13 -61 13 -80 0z"/>
<path d="M13064 1935 c-29 -8 -67 -20 -85 -28 l-34 -15 30 -12 c23 -10 51 -10
125 -1 185 22 223 29 238 45 14 14 8 15 -69 13 -46 -1 -100 1 -119 5 -21 5
-55 2 -86 -7z"/>
<path d="M13495 1940 c-3 -5 3 -10 14 -10 11 0 23 5 26 10 3 6 -3 10 -14 10
-11 0 -23 -4 -26 -10z"/>
<path d="M12180 1924 c-25 -7 -97 -19 -160 -24 -63 -6 -124 -14 -135 -17 l-20
-6 20 -8 c34 -13 275 -9 375 6 52 8 124 22 160 32 l65 18 -70 6 c-115 11 -187
8 -235 -7z"/>
<path d="M13400 1929 c0 -5 5 -7 10 -4 6 3 10 8 10 11 0 2 -4 4 -10 4 -5 0
-10 -5 -10 -11z"/>
<path d="M12880 1890 c0 -5 5 -10 10 -10 6 0 10 5 10 10 0 6 -4 10 -10 10 -5
0 -10 -4 -10 -10z"/>
<path d="M10837 1742 c-18 -19 -23 -52 -9 -52 5 0 16 6 26 13 13 9 15 18 9 35
-9 23 -9 23 -26 4z"/>
<path d="M6149 1455 c-3 -2 -39 -9 -80 -15 -104 -14 -129 -20 -129 -31 0 -5
32 -9 71 -9 55 0 80 5 110 22 22 12 39 25 39 30 0 9 -4 10 -11 3z"/>
<path d="M5085 1428 c-11 -7 -72 -15 -134 -20 -139 -9 -173 -20 -169 -56 l3
-25 210 2 c182 2 225 5 320 27 61 14 136 27 167 31 64 7 67 17 8 33 -29 8 -69
7 -144 -1 -92 -11 -109 -10 -148 4 -51 20 -85 21 -113 5z"/>
<path d="M5641 1411 c-11 -7 -9 -10 8 -16 22 -7 41 0 41 16 0 11 -30 12 -49 0z"/>
<path d="M6175 1410 c-3 -5 -1 -10 4 -10 6 0 11 5 11 10 0 6 -2 10 -4 10 -3 0
-8 -4 -11 -10z"/>
<path d="M4338 1359 c-26 -14 -22 -25 12 -39 33 -14 51 -5 71 32 9 16 5 18
-28 18 -21 0 -46 -5 -55 -11z"/>
<path d="M4187 1343 c-4 -3 -7 -12 -7 -20 0 -17 26 -17 33 1 8 21 -11 35 -26
19z"/>
<path d="M3806 1318 c-32 -45 7 -52 49 -8 l29 30 -32 0 c-20 0 -36 -7 -46 -22z"/>
<path d="M3937 1333 c-16 -15 -6 -34 15 -31 29 4 38 38 10 38 -10 0 -22 -3
-25 -7z"/>
<path d="M4051 1331 c-11 -7 -10 -11 7 -20 28 -15 30 -14 42 9 9 17 8 20 -12
20 -13 0 -29 -4 -37 -9z"/>
<path d="M3237 1094 c-8 -8 1 -24 14 -24 5 0 9 7 9 15 0 15 -12 20 -23 9z"/>
</g>
</svg>
